<?xml version="1.0" encoding="UTF-8" standalone="no"?>
<!-- Created with Inkscape (http://www.inkscape.org/) -->

<svg
   xmlns:dc="http://purl.org/dc/elements/1.1/"
   xmlns:cc="http://creativecommons.org/ns#"
   xmlns:rdf="http://www.w3.org/1999/02/22-rdf-syntax-ns#"
   xmlns:svg="http://www.w3.org/2000/svg"
   xmlns="http://www.w3.org/2000/svg"
   version="1.1"
   width="512"
   height="512"
   id="svg3119">
  <defs
     id="defs3121">
    <clipPath
       id="clipPath4138">
      <rect
         width="154.30508"
         height="179.7729"
         x="10.486753"
         y="10.302786"
         id="rect4140"
         style="fill:#ff7f2a" />
    </clipPath>
    <clipPath
       id="clipPath4090">
      <rect
         width="185.76534"
         height="232.20668"
         x="8.9886456"
         y="10.302786"
         id="rect4092"
         style="fill:#ff7f2a" />
    </clipPath>
    <clipPath
       id="clipPath4138-2">
      <rect
         width="154.30508"
         height="179.7729"
         x="10.486753"
         y="10.302786"
         id="rect4140-3"
         style="fill:#ff7f2a" />
    </clipPath>
    <clipPath
       id="clipPath4090-6">
      <rect
         width="185.76534"
         height="232.20668"
         x="8.9886456"
         y="10.302786"
         id="rect4092-8"
         style="fill:#ff7f2a" />
    </clipPath>
    <clipPath
       id="clipPath6489">
      <rect
         width="216.42857"
         height="138.57143"
         x="553.57141"
         y="818.07648"
         id="rect6491"
         style="fill:#ff8080;fill-opacity:1;fill-rule:nonzero;stroke:#960000;stroke-width:10;stroke-miterlimit:4;stroke-opacity:1;stroke-dasharray:none" />
    </clipPath>
  </defs>
  <metadata
     id="metadata3124">
    <rdf:RDF>
      <cc:Work
         rdf:about="">
        <dc:format>image/svg+xml</dc:format>
        <dc:type
           rdf:resource="http://purl.org/dc/dcmitype/StillImage" />
        <dc:title></dc:title>
      </cc:Work>
    </rdf:RDF>
  </metadata>
  <g
     transform="translate(0,-540.36218)"
     id="layer1"
     style="display:inline">
    <path
       d="m 252.84375,3.28125 c -6.07212,0 -12.09743,0.2057039 -18.0625,0.625 -1.63508,0.3439689 -3.26205,0.7429789 -4.875,1.25 -2.33953,0.5716478 -4.70441,0.9748366 -7.0625,1.40625 C 222.47921,6.2441092 222.1009,6.0420258 221.75,6.03125 219.8827,5.9739061 218.02409,5.9365674 216.15625,5.90625 200.91802,8.1155526 186.10777,11.692679 171.875,16.5 c -1.01005,1.73761 -2.00581,3.47183 -3,5.21875 -1.05423,1.03864 -2.09785,2.08832 -3.15625,3.125 -2.22727,0.0986 -4.8245,0.12015 -7.75,0.0625 0.0835,-1.10029 0.18455,-2.21216 0.25,-3.3125 -17.27975,6.976867 -33.61229,15.812358 -48.75,26.25 C 100.2287,56.086259 90.761449,64.08225 80.75,71.375 c -0.179236,-0.01166 -0.357419,-0.0027 -0.53125,0 -5.008616,4.679043 -9.821293,9.556842 -14.4375,14.625 1.830868,0.30778 3.500121,0.62438 4.90625,0.9375 0.201358,0.62747 0.400703,1.24466 0.59375,1.875 45.12508,-48.90168 109.74966,-79.53125 181.5625,-79.53125 27.89024,0 54.68427,4.61053 79.6875,13.125 0.26917,-0.27396 0.54427,-0.53759 0.8125,-0.8125 1.60916,-0.0564 3.20478,-0.13916 4.8125,-0.21875 -0.81128,0.72081 -1.61698,1.44543 -2.4375,2.15625 16.51016,5.87735 32.2291,13.45326 46.90625,22.53125 1.18473,-1.60077 2.37491,-3.19287 3.53125,-4.8125 -5.03763,-3.130483 -10.20284,-6.093275 -15.46875,-8.875 -0.0627,-0.0065 -0.13662,0.01401 -0.1875,0 -0.35928,-0.09896 -0.65792,-0.297236 -0.90625,-0.5625 -10.07552,-5.260202 -20.53134,-9.87067 -31.34375,-13.75 -0.45902,0.18535 -0.78959,0.33414 -1.4375,0.59375 -0.10459,-0.10303 -0.24846,-0.19058 -0.375,-0.28125 0.21641,-0.22871 0.42768,-0.47397 0.65625,-0.71875 -19.2723,-6.80864 -39.59608,-11.33254 -60.6875,-13.28125 -1.95859,1.27328 -3.90391,2.5728 -5.84375,3.875 -0.16574,0.0358 -0.33426,0.05805 -0.5,0.09375 -0.56758,-0.055 -1.17146,-0.1037 -1.71875,-0.15625 0.0332,-1.4658 0.0909,-2.94709 0.21875,-4.40625 -5.19636,-0.31862 -10.44242,-0.5 -15.71875,-0.5 z m 69.21875,10.5625 c 0.19673,-0.05772 0.61058,0.01207 0.875,0.0625 -0.0389,0.02526 -0.0861,0.03706 -0.125,0.0625 -0.34364,0.003 -0.6876,-0.0023 -1.03125,0 0.0895,-0.04603 0.18387,-0.09643 0.28125,-0.125 z m -69.21875,27.125 c -26.43474,0 -51.75244,4.77237 -75.15625,13.5 -0.84312,0.793505 -1.7321,1.535225 -2.5,2.40625 -1.78258,1.451884 -4.11063,1.882547 -6.0625,3 -2.23199,1.129047 -4.73848,1.234775 -7.1875,1.34375 -0.10748,-0.0032 -0.20626,-0.0019 -0.3125,0 -32.39319,15.184707 -60.40104,38.186459 -81.5625,66.59375 1.451503,1.73447 3.205206,3.12985 5.0625,4.40625 0.878672,0.6485 1.736533,1.32833 2.5625,2.03125 25.5481,-34.527529 61.67125,-60.758549 103.59375,-73.90625 -0.2296,-0.82755 -0.45435,-1.41563 -0.71875,-1.4375 -2.36356,-0.1955 -4.41778,-0.41634 -6.3125,-0.625 2.64069,-0.66801 5.24891,-1.56113 7.78125,-2.625 0.26889,1.43638 0.64033,2.82325 1.21875,4.09375 15.14298,-4.581876 31.00723,-7.477932 47.40625,-8.4375 0.1088,-0.08046 0.23447,-0.138758 0.34375,-0.21875 0.0726,0.06275 0.14551,0.12569 0.21875,0.1875 0.006,0.0051 0.0251,-0.0051 0.0312,0 3.83321,-0.21322 7.70599,-0.3125 11.59375,-0.3125 35.73751,0 69.33562,9.1188 98.59375,25.15625 0.14536,-0.0683 1.46963,-0.0179 3.625,0.0625 0.0229,0.24264 0.0276,0.50344 0.0312,0.75 -1.72791,-0.3243 -2.86471,-0.55806 -3.375,-0.6875 1.30354,0.71705 2.58892,1.47443 3.875,2.21875 5.00628,-0.0274 10.02725,-0.04115 15.03125,0.03125 5.90432,0.0855 -5.19528,0.02375 -14.9375,0.03125 6.91285,4.00591 13.56559,8.39829 19.9375,13.15625 1.79313,-0.0606 3.12752,-1.75499 4.71875,-2.59375 0.65567,-0.34561 1.31255,-0.68657 1.96875,-1.03125 -0.43288,1.296 -0.68514,2.65299 -1.0625,3.96875 0.45332,1.1881 0.10955,3.43716 1.375,3.5625 1.36405,0.1351 2.72569,0.23691 4.09375,0.3125 -0.91544,0.78139 -1.83293,1.56483 -2.75,2.34375 37.40423,31.05544 63.56686,75.1371 71.59375,125.3125 1.62909,-0.52405 3.27133,-1.05277 4.90625,-1.5625 -1.57314,1.00761 -3.11036,2.04437 -4.65625,3.09375 1.35619,8.90852 2.16553,18.00292 2.34375,27.25 0.7507,-0.36895 1.51968,-0.71909 2.28125,-1.0625 2.56308,0.4083 5.20125,0.73265 7.65625,0.8125 -0.4785,-25.04967 -5.21775,-49.05144 -13.5625,-71.3125 -0.79054,0.16764 -1.58598,0.33376 -2.375,0.5 0.74939,-0.28415 1.5,-0.5612 2.25,-0.84375 -15.33835,-40.70635 -42.68714,-75.54077 -77.6875,-100.21875 -0.84255,-0.177588 -1.64837,-0.42216 -2.4375,-0.71875 -0.84803,-0.569635 -1.71725,-1.119445 -2.59375,-1.65625 -0.61478,-0.344161 -1.22761,-0.690183 -1.84375,-1.03125 -0.57529,-0.532864 -1.12295,-1.143629 -1.625,-1.8125 -0.20347,-0.257626 -0.39889,-0.517645 -0.59375,-0.78125 0.55215,7.1e-4 -1.85533,-2.97e-4 -2.78125,0 -1.00899,4e-4 -2.02229,0.007 -3.03125,0 -0.96408,-0.006 -1.9422,-0.02115 -2.90625,-0.03125 -0.22931,-0.005 -0.45718,0.003 -0.6875,0 0.0849,-0.0115 0.16582,-0.0503 0.25,-0.0625 3.31199,0.02713 7.06943,0.09051 9.15625,0.09375 -0.031,-0.04198 -0.0629,-0.08289 -0.0937,-0.125 -4.07695,-2.572701 -8.24702,-5.01056 -12.5,-7.3125 -0.5009,0.0044 -1.01301,-0.0024 -1.5,0 0.37166,-0.09537 0.77237,-0.141888 1.15625,-0.1875 -3.02981,-1.632796 -6.104,-3.198001 -9.21875,-4.6875 -0.32868,0.03233 -0.73868,0.06278 -1.09375,0.09375 -1.39921,-0.848657 -2.81919,-1.684408 -4.21875,-2.53125 -2.07229,-0.922091 -4.14323,-1.82997 -6.25,-2.6875 l -1.6875,-0.0625 c -0.007,-0.0313 -0.0242,-0.06265 -0.0312,-0.09375 0.27213,-0.0199 0.51525,-0.0416 0.78125,-0.0625 0.16641,0.0186 0.36048,0.0439 0.53125,0.0625 C 308.58462,46.54268 281.36115,40.96875 252.84375,40.96875 z M 263.75,44.1875 c 0.26094,0.06579 0.52,0.122763 0.78125,0.1875 -0.036,0.12299 -0.0665,0.249856 -0.0937,0.375 -0.22571,-0.188958 -0.45732,-0.37966 -0.6875,-0.5625 z M 220.65625,45.25 c 0.29776,0.02714 0.58164,0.05234 0.875,0.0625 -0.0464,0.166762 -0.11149,0.332864 -0.15625,0.5 -0.0896,0.346404 -0.17251,0.687083 -0.25,1.03125 -0.48957,0.02631 -0.98072,0.04044 -1.46875,0.0625 -1.26585,-0.06353 -2.48381,0.06453 -3.71875,0.25 1.53582,-0.724834 3.10726,-1.376449 4.71875,-1.90625 z m 162.6875,1.28125 c 3.87652,2.4163 7.67748,4.94118 11.40625,7.5625 0.89793,-0.97784 1.66578,-1.85734 2,-2.46875 0.35036,-0.64095 1.02349,-1.66649 1.34375,-2.5 -0.82777,-0.5816 -1.66498,-1.14686 -2.5,-1.71875 -4.04628,-0.6069 -8.13797,-0.81301 -12.25,-0.875 z M 268.1875,48.1875 c 1.34422,0.09228 2.52122,0.769827 3.46875,1.71875 0.38954,0.445796 0.74071,0.904576 1.09375,1.375 -1.48144,-0.796749 -2.90884,-1.699351 -4.21875,-2.78125 -0.11307,-0.105797 -0.23074,-0.206257 -0.34375,-0.3125 z M 404.78125,54 c -0.0312,0.0417 -0.0625,0.0833 -0.0937,0.125 -1.11665,1.57793 -2.22888,3.16982 -3.34375,4.75 11.88912,8.95591 22.95228,18.95754 33.03125,29.875 1.27615,-0.14689 2.51757,-0.36402 3.71875,-0.625 1.9318,1.17606 3.83616,2.42235 5.71875,3.65625 1.08462,0.83326 2.18099,1.62855 3.28125,2.4375 -2.486,-2.97801 -5.03742,-5.89082 -7.65625,-8.75 -0.0293,0.033 -0.0645,0.06075 -0.0937,0.09375 0.0109,-0.069 0.0206,-0.0884 0.0312,-0.15625 C 428.83987,73.91227 417.26058,63.39023 404.78125,54 z M 63.1875,93.40625 C 62.533119,93.38915 61.95325,93.72549 61.40625,94.125 60.567642,93.9957 59.778712,93.86011 59,93.75 c -12.919453,15.39057 -24.032416,32.34486 -33.03125,50.53125 0.05107,8e-5 0.136096,-8e-5 0.1875,0 0.109767,0.0298 0.204852,0.0645 0.3125,0.0937 -0.199962,0.0233 -0.389511,0.0396 -0.59375,0.0625 -14.81762,30.00035 -23.8670563,63.36388 -25.6875,98.625 0.60402151,0.0242 1.2082528,0.042 1.8125,0.0625 -0.603592,0.005 -1.20890782,-0.005 -1.8125,0 -0.22414589,4.36229 -0.34375,8.73815 -0.34375,13.15625 0,36.84197 7.8944506,71.82935 22.0625,103.40625 0.385205,0.027 0.77093,0.0684 1.15625,0.0937 -0.12391,0.23019 -0.250703,0.45815 -0.375,0.6875 1.554481,-0.27074 3.505285,-0.57334 5.78125,-0.84375 C 13.962713,328.1857 5.84375,293.19209 5.84375,256.28125 5.84375,193.91147 28.951985,136.96317 67.0625,93.5 65.797106,93.4763 64.548026,93.44175 63.1875,93.40625 z m 386.96875,7.46875 c -1.16236,0.0503 -2.02055,0.77844 -3.4375,2.3125 28.57381,36.14912 47.23664,80.49771 51.9375,128.9375 l 0.40625,-0.15625 c -0.12598,0.11338 -0.24875,0.23066 -0.375,0.34375 0.69004,7.16729 1.06038,14.41657 1.125,21.75 0.87359,0.0531 1.75143,0.10553 2.625,0.15625 -0.87559,0.15249 -1.74958,0.31532 -2.625,0.46875 0.003,0.53225 0.0312,1.0607 0.0312,1.59375 0,11.02836 -0.72537,21.88596 -2.125,32.53125 2.07022,-0.50873 4.1444,-1.00975 6.21875,-1.5 1.24464,-10.16985 1.90625,-20.52599 1.90625,-31.03125 0,-48.68362 -13.78049,-94.15489 -37.625,-132.75 -0.90617,0.4376 -1.81565,0.86856 -2.71875,1.3125 0.69569,-0.76506 1.39705,-1.54845 2.09375,-2.3125 -4.58408,-7.34307 -9.55561,-14.40366 -14.84375,-21.21875 -1.05469,-0.25905 -1.9425,-0.46571 -2.59375,-0.4375 z M 75.5,134.21875 c -23.937919,34.69912 -37.96875,76.74631 -37.96875,122.0625 0,22.64299 3.510921,44.4645 10,64.96875 7.090427,2.94056 -0.300085,2.2007 11.03125,1.59375 -7.140872,-20.87043 -11.03125,-43.2581 -11.03125,-66.5625 0,-44.95407 14.429926,-86.50866 38.90625,-120.3125 -2.991089,-0.58318 -6.958461,-1.32652 -10.9375,-1.75 z m 351.9375,8.71875 c -0.0193,0.56519 -0.0575,1.12525 -0.0625,1.375 -2.97818,0.21372 -2.80785,-0.0419 0.0625,-1.375 z m -32.8125,14.28125 c -5.13069,7e-5 -9.02352,2.03041 -11.6875,6.125 -2.46668,3.7494 -3.71876,8.90748 -3.71875,15.46875 -10e-6,4.68671 0.84074,8.35413 2.46875,10.96875 1.92399,3.00937 5.68848,6.10587 11.3125,9.3125 l 4.96875,2.6875 c 0.17646,-0.0403 0.35901,-0.0421 0.53125,-0.0937 0.76138,-0.22867 1.47575,-0.65476 2.21875,-0.9375 1.51374,-0.37284 3.00705,-0.83258 4.46875,-1.40625 -1.93316,-0.90688 -3.43286,-1.63403 -4.1875,-2.03125 -3.74936,-2.07196 -6.94786,-4.14671 -9.5625,-6.21875 -3.00935,-2.46662 -5.01335,-4.82437 -6,-7.09375 -0.44402,-1.03595 -0.65627,-2.5842 -0.65625,-4.65625 -2e-5,-3.89728 0.6104,-7.63544 1.84375,-11.1875 1.47998,-4.04527 3.34248,-6.06243 5.5625,-6.0625 0.78931,0.0987 2.15164,0.82432 4.125,2.15625 1.9733,1.28273 4.1188,1.90632 6.4375,1.90625 l 1.9375,0.0625 c 0.22798,1e-5 0.44622,-0.0173 0.65625,-0.0312 -0.0521,-0.29702 -0.13165,-0.59849 -0.15625,-0.90625 -0.0599,-0.61626 -0.10403,-1.22698 -0.15625,-1.84375 1.11437,0.0333 2.22943,0.0872 3.34375,0.125 -0.0932,-2.33698 -2.24086,-4.09223 -6.4375,-5.25 -2.66403,-0.73993 -5.09253,-1.09368 -7.3125,-1.09375 z m -167.3125,3.09375 c -0.54817,0.20845 -1.17185,0.59767 -1.875,1.125 -0.93735,0.74007 -1.40627,1.37682 -1.40625,1.96875 l 1.3125,6.46875 -0.5625,2.34375 -2.46875,7.46875 c -0.57227,1.7417 -1.31448,4.14878 -2.21875,7.1875 1.8191,0.84029 3.77811,1.56279 5.8125,2.125 0.86169,-4.08812 1.74734,-8.49718 2.625,-13.28125 l 1.34375,0 c 0.34531,1.87472 2.16339,6.84688 5.46875,14.9375 l 9.46875,21.8125 c 3.40396,7.54801 5.12495,11.48526 5.125,11.78125 l -3.84375,0 -15.5625,-4.5 c -0.78936,1e-5 -1.41294,0.34059 -1.90625,1.03125 -0.44402,0.64134 -0.68752,1.38009 -0.6875,2.21875 -2e-5,1.38134 0.66798,2.27476 2,2.71875 0.83864,0.29601 1.96239,0.46876 3.34375,0.46875 l 1.09375,0 c 3.3053,0.69067 6.17638,1.2435 8.59375,1.6875 2.46662,0.49334 5.08104,1.01984 7.84375,1.5625 l 6.875,1.3125 3.34375,0 c 0.0264,-0.71286 0.0309,-1.45185 0.0312,-1.46875 -0.009,-0.64316 0.004,-1.29435 0,-1.9375 0.15984,8.5e-4 0.392,-7.8e-4 0.5625,0 l 0,-2.4375 c -2.17072,1e-5 -4.9003,-2.49924 -8.15625,-7.53125 -1.38138,-2.07198 -2.71738,-4.27506 -4,-6.59375 -1.23338,-2.36798 -2.45421,-4.96922 -3.6875,-7.78125 -2.26937,-4.88397 -3.47704,-7.89655 -3.625,-9.03125 -0.14804,-1.18396 -0.67454,-2.73221 -1.5625,-4.65625 l -4.875,-12.34375 -3.46875,-9.1875 c -1.65137,-4.04968 -2.9081,-6.45828 -3.75,-7.28125 -0.39307,-0.0598 -0.79238,-0.13133 -1.1875,-0.1875 z m -63.96875,3.40625 c -0.56493,0.0439 -0.96952,0.26388 -1.1875,0.65625 -0.2467,0.39473 -0.37503,0.99198 -0.375,1.78125 0.0986,0.39473 0.15622,0.99198 0.15625,1.78125 L 162,169.71875 c -3e-5,0.88806 -0.14153,1.55606 -0.4375,2 -0.29603,0.44406 -0.79128,0.65631 -1.53125,0.65625 l -0.96875,-0.0625 c -1.72669,-0.29594 -3.33253,-0.46869 -4.8125,-0.46875 -1.97336,6e-5 -3.86219,0.18598 -5.6875,0.53125 -1.82535,0.34539 -3.81618,0.87189 -5.9375,1.5625 -3.25601,1.18406 -4.91945,1.87839 -4.96875,2.125 l -0.0625,0.96875 c -1e-5,1.48005 0.88024,2.4623 2.65625,2.90625 l 6.3125,1.03125 4.125,1.03125 c 0.19731,-0.0986 0.46715,-0.1562 0.8125,-0.15625 -0.93735,-0.78928 -1.40627,-1.41287 -1.40625,-1.90625 -2e-5,-0.83861 0.92465,-1.4227 2.75,-1.71875 1.82531,-0.29595 3.77172,-0.43745 5.84375,-0.4375 l 1.34375,0.0625 0.9375,0 c 1.5293,0.29605 2.71063,3.96347 3.5,10.96875 0.59196,5.03204 0.87496,9.87587 0.875,14.5625 -4e-5,2.41736 0.73871,6.89427 2.21875,13.40625 0.29784,1.2602 0.52642,2.48514 0.6875,3.6875 0.32962,-0.10228 0.68753,-0.22519 1,-0.3125 1.94181,-0.36793 3.86117,-0.78088 5.75,-1.3125 l -5.4375,-34.625 -0.15625,-1.625 -0.4375,-3.71875 c 0.59196,-0.1973 1.60054,-0.2812 3.03125,-0.28125 1.72662,5e-5 4.8807,0.25672 9.46875,0.75 l 7.78125,1.09375 c 2.6146,0.44405 5.37052,1.1828 8.28125,2.21875 l 7.625,2.96875 0.8125,0.15625 1.125,0.0625 c 0.88792,-0.0986 1.49834,-0.22695 1.84375,-0.375 0.0524,-0.0458 0.081,-0.10554 0.125,-0.15625 0.10549,-0.50018 0.20719,-0.99978 0.3125,-1.5 -0.33908,-1.42854 -1.43911,-2.73475 -3.34375,-3.90625 -1.47616,0.27429 -2.95917,0.54077 -4.4375,0.8125 -0.0189,-0.35905 -0.0802,-0.73674 -0.125,-1.125 0.95142,-0.13334 1.88593,-0.32337 2.78125,-0.625 -0.75731,-0.35641 -1.57794,-0.70123 -2.5,-1.03125 -5.92007,-2.17061 -11.00739,-3.28119 -15.25,-3.28125 -2.02272,6e-5 -4.09747,-0.0707 -6.21875,-0.21875 -2.07205,-0.14794 -4.01846,-0.34703 -5.84375,-0.59375 -1.82538,-0.24661 -3.64346,-0.67111 -5.46875,-1.3125 -0.59204,-0.14794 -1.18929,-1.59911 -1.78125,-4.3125 -0.32275,-1.64293 -0.80716,-2.82753 -1.4375,-3.5625 -0.1411,0.34358 -0.29277,0.68924 -0.4375,1.03125 -0.69648,-0.6953 -1.36485,-1.3758 -1.96875,-1.96875 z m -55.46875,1.6875 c -4.09733,7e-5 -9.35924,0.76602 -15.65625,2.21875 -0.06554,0.0489 -0.12204,0.1073 -0.1875,0.15625 0.0017,-0.0391 -0.02512,-0.0593 -0.03125,-0.0937 -0.300394,0.0698 -0.569747,0.11451 -0.875,0.1875 -6.808016,1.62806 -12.64726,3.53006 -17.53125,5.75 -5.426666,2.51606 -8.124997,4.78989 -8.125,6.8125 3e-6,0.83872 0.212253,1.3208 0.65625,1.46875 L 71.15625,184 c 0.04933,0.19738 0.133247,0.53796 0.28125,1.03125 l 0,1.1875 0.09375,1.46875 c -3e-6,0.88804 -0.141503,1.48529 -0.4375,1.78125 l -0.375,0.65625 -1.0625,5.5 c 1.980048,-0.19354 4.462478,-0.69646 7.34375,-1.21875 0.119854,-3.15845 0.5116,-5.94297 1.25,-8.28125 0.246657,-0.93729 0.702406,-1.94587 1.34375,-3.03125 -1.1e-5,-3.99595 2.627569,-6.70744 7.90625,-8.1875 l 14.21875,-2.46875 4.8125,-1.09375 1.34375,-0.21875 c 2.91063,-0.34527 5.79487,-0.53119 8.65625,-0.53125 1.43062,6e-5 2.73537,0.0577 3.96875,0.15625 0.18912,0.0151 0.40123,0.046 0.59375,0.0625 2.7792,-1.74389 5.55168,-3.50837 8.3125,-5.28125 -1.72913,-0.0243 -3.46202,-0.0312 -4.53125,-0.0312 l -17,-0.0937 z m 34.53125,0 c -1.03607,0.1481 -2.59749,0.25007 -4.71875,0.25 l -1.03125,0 c -1.18407,1e-4 -3.10415,-0.0445 -5.71875,-0.0937 -0.35039,-0.007 -0.48354,0.005 -0.8125,0 -0.42195,0.47724 -0.78155,1.02184 -1.0625,1.65625 -0.37868,1.87341 0.13165,3.39353 1.15625,4.6875 l 2.34375,0.3125 c 1.1346,6e-5 2.64335,-0.22536 4.46875,-0.71875 1.82526,-0.64127 3.59893,-1.50836 5.375,-2.59375 l 0,-3.5 z m 194.875,3.40625 c -0.29485,7.1e-4 -0.58291,0.024 -0.875,0.0312 0.31973,-0.009 1.2573,0.21175 0.9375,0.21875 -0.69133,0.0145 -1.04996,0.0178 -1.71875,0.0312 0.2405,-0.14568 0.4887,-0.24155 0.78125,-0.25 -3.33799,0.0825 -6.50054,0.56935 -9.46875,1.46875 -4.98268,1.52939 -8.87551,4.14381 -11.6875,7.84375 -3.65067,4.73605 -5.5,11.12813 -5.5,19.21875 0,9.27469 2.40216,16.75102 7.1875,22.375 2.07813,2.37501 4.50521,4.31367 7.28125,5.84375 0.60975,-0.23966 1.20498,-0.46124 1.84375,-0.71875 0.62242,-0.30561 1.56449,-0.77833 2.59375,-1.3125 0.8218,-0.26532 1.65038,-0.5062 2.46875,-0.78125 l 0.65625,-0.0312 c -3.94378,-1.20615 -7.00159,-3.12022 -9.15625,-5.6875 -3.25601,-3.94665 -4.87501,-9.59998 -4.875,-17 -10e-6,-5.57463 1.22082,-10.84787 3.6875,-15.78125 3.05865,-6.06795 7.18181,-9.09369 12.3125,-9.09375 1.43064,6e-5 2.26647,0.45581 2.5625,1.34375 l 0.0937,1.3125 8.875,0 0.15625,0.4375 c 0.021,0.0525 0.0417,0.10374 0.0625,0.15625 7.8e-4,-0.32304 -3.4e-4,-0.64571 0,-0.96875 -0.0114,-1.743 -0.003,-3.50964 -0.21875,-5.25 -0.0985,0.0217 -0.18028,0.0406 -0.28125,0.0625 -0.19153,-0.91258 -0.41384,-1.68875 -0.6875,-2.34375 -2.67754,-0.40371 -4.98498,-0.80147 -6.9375,-1.125 -0.0319,0 -0.062,-8e-5 -0.0937,0 z M 301.5,169.53125 c -1.21963,1.05139 -2.54899,2.36411 -4,3.96875 -0.59712,0.65785 -1.21406,1.40581 -1.84375,2.15625 -0.0464,0.53509 -0.34126,0.81142 -0.8125,0.96875 -2.2214,2.72591 -4.62997,5.96979 -7.25,9.8125 l -4.65625,7.1875 c -0.28837,0.64882 -1.54565,2.80502 -3.28125,5.6875 1.05239,0.3264 2.12589,0.45511 3.21875,0.53125 0.47673,-0.70321 0.9726,-1.39678 1.46875,-2.09375 l 9.09375,-13.6875 c 3.0093,-4.53861 5.61054,-7.76344 7.78125,-9.6875 1.36923,-1.16036 2.80358,-2.04467 4.28125,-2.65625 -1.42512,-0.0412 -2.62834,0.0106 -3.5625,0.25 -0.0188,-0.73017 -0.16416,-1.50357 -0.4375,-2.4375 z M 353,179.9375 c -1.27713,0.0127 -1.48137,1.20891 -1.8125,4 l 0.8125,-0.0937 1.28125,0.21875 c 1.62795,-0.14795 3.7027,2.65238 6.21875,8.375 1.77595,4.14403 2.6562,8.76245 2.65625,13.84375 -5e-5,5.67335 -1.67663,9.90677 -5.03125,12.71875 -2.22005,1.87468 -5.41854,3.22384 -9.5625,4.0625 -4.14403,0.83867 -6.37345,1.44909 -6.71875,1.84375 l -5.15625,-1.21875 c 0.39378,1.38893 0.9357,2.47904 1.625,3.3125 -0.22851,0.76028 -0.45132,1.5234 -0.6875,2.28125 0.0909,0.007 0.1597,0.0246 0.25,0.0312 0.13237,0.003 0.27913,0.0312 0.40625,0.0312 8.0413,0 15.01746,-1.902 20.9375,-5.75 6.75861,-4.34132 10.15619,-10.10982 10.15625,-17.3125 -6e-5,-6.31464 -1.94647,-12.93705 -5.84375,-19.84375 -0.94043,-1.64957 -1.96981,-3.25018 -3.0625,-4.8125 -3.4777,-0.9905 -5.38898,-1.69825 -6.46875,-1.6875 z m -135,14.15625 c -0.36932,1.27005 -0.65573,2.18633 -1.0625,3.59375 l -3.71875,12.21875 -3.25,10.78125 c -0.34534,0.98668 -0.62834,1.85376 -0.875,2.59375 -0.19734,0.74001 -0.39642,1.52317 -0.59375,2.3125 l 0,2.5625 1.90625,0 c 0.14799,-0.19733 0.2632,-0.3388 0.3125,-0.4375 0.0493,-0.148 0.0757,-0.30266 0.125,-0.5 0.0987,-0.24666 0.41291,-0.375 0.90625,-0.375 l 1.90625,0 c 0.14799,-0.59199 0.95749,-2.38374 2.4375,-5.34375 0.93732,-1.82532 1.8044,-3.7849 2.59375,-5.90625 0.78932,-2.12132 1.63007,-4.54981 2.46875,-7.3125 1.15095,-3.80519 2.30136,-8.2719 3.46875,-13.375 -2.53723,-0.22926 -4.73696,-0.51327 -6.625,-0.8125 z m -98.59375,4.9375 -31,3.53125 -0.75,-0.0625 -3.84375,0.375 -3.09375,0.59375 c 0.34088,1.41965 0.698566,2.83336 1.0625,4.25 0.09961,0.52078 0.211865,1.04191 0.3125,1.5625 1.276711,-0.24681 2.680944,-0.47377 4.3125,-0.65625 L 108.75,206.03125 c 8.38662,-1.47997 13.13336,-3.7933 14.21875,-7 l -3.5625,0 z m -51,3.59375 c -0.04687,0.39867 -0.09572,0.79225 -0.125,1.1875 -0.09867,1.33203 -0.15625,2.98227 -0.15625,4.90625 0,7.84401 2.344581,13.15676 7.03125,15.96875 1.985108,1.19616 4.766612,2.0483 8.3125,2.625 -0.03823,-0.0968 -0.239701,-0.29663 -0.15625,-0.375 0.7885,-0.74045 2.320571,-0.34474 3.09375,-1.0625 2.768306,-0.0292 5.546706,-0.0616 8.3125,-0.1875 0.0274,-0.001 0.25247,-0.16193 0.5,-0.34375 -0.5578,0.72512 -1.090571,1.53835 -1.65625,2.46875 -0.05683,0.1072 -0.102624,0.20619 -0.15625,0.3125 0.693806,0.0129 1.36706,0.0312 2.09375,0.0312 l 10.59375,0 3.84375,0.0937 3.625,0.0625 c 3.45329,0 6.12528,-0.39816 8,-1.1875 2.46661,-1.13466 4.08561,-3.10741 4.875,-5.96875 -1.57872,1e-5 -5.41397,0.56601 -11.53125,1.75 -6.11737,1.18401 -11.12078,1.78126 -14.96875,1.78125 -7.942689,1e-5 -14.250851,-1.33599 -18.9375,-4 -3.897342,-2.21999 -5.843757,-4.71923 -5.84375,-7.53125 -4e-6,-1.38246 1.551497,-2.49649 4.59375,-3.34375 -1.707565,-0.82908 -3.380959,-1.72095 -4.78125,-3.0625 -1.669028,-1.27408 -3.336029,-2.66735 -5.3125,-3.375 -0.439325,-0.24302 -0.861706,-0.48197 -1.25,-0.75 z m 345.875,1.25 c -0.50746,0.87339 -1.0371,1.74797 -1.4375,2.6875 -0.40329,0.87326 -0.83479,1.72567 -1.25,2.59375 l 2.625,1.40625 c 7.10395,3.84802 11.77994,7.08601 14,9.75 -6e-5,1.13468 -2.27389,2.31601 -6.8125,3.5 -1.57872,0.44401 -3.87888,0.97051 -6.9375,1.5625 l -7.25,0.5625 -7.34375,0.0937 c -6.51202,1e-5 -12.46643,-0.65483 -17.84375,-1.9375 -5.37734,-1.33199 -8.0625,-2.59724 -8.0625,-3.78125 0,-1.03599 0.91149,-1.94257 2.6875,-2.78125 1.28266,-0.64132 2.02141,-1.0839 2.21875,-1.28125 l 0.46875,-0.8125 c -0.99038,-0.008 -1.97837,0.008 -2.96875,0 0.13412,-0.58167 0.26612,-1.16265 0.375,-1.75 -3.73847,1.32304 -6.67132,3.18844 -8.78125,5.59375 l -1.25,1.875 c 0,1.57306 0.87677,2.93468 2.625,4.09375 -0.0901,-1.32469 -0.19406,-2.64375 -0.28125,-3.96875 1.16949,-0.50116 2.28243,-1.0938 3.3125,-1.75 0.14213,2.46525 0.29737,4.92231 0.46875,7.375 1.70243,0.60206 3.7414,1.12608 6.15625,1.5625 5.47599,1.036 11.62948,1.5625 18.4375,1.5625 7.39996,0 14.10629,-0.51333 20.125,-1.5 6.06795,-0.93733 10.81469,-2.02983 14.21875,-3.3125 3.40393,-1.28266 5.16443,-2.36199 5.3125,-3.25 l -0.0625,-1.125 c -0.29607,-1.77599 -0.8094,-2.97049 -1.5,-3.5625 L 430,213.75 419.125,206.78125 c -1.95515,-1.2103 -3.53734,-2.14752 -4.84375,-2.90625 z m -138.625,1.96875 -7.09375,11.4375 -3.53125,5.5 c 0.75487,0.005 1.44676,0.0249 2.25,0.0312 0.66544,-0.41888 1.32983,-0.83742 2,-1.25 0.86232,-0.0248 1.69667,-0.091 2.46875,-0.1875 l 2.21875,-5.5 c 1.44771,-3.28321 3.07529,-6.49626 4.90625,-9.65625 -1.15246,-0.11752 -2.21692,-0.24786 -3.21875,-0.375 z m 103.0625,7.21875 c -0.309,0.0878 -0.60673,0.18697 -0.90625,0.28125 0.61828,0.56614 1.18144,1.16703 1.6875,1.8125 l 0.53125,-0.90625 -1.3125,-1.1875 z m -113.9375,10.125 -1.96875,3.0625 0,1.09375 c 0.4608,0.0409 0.73294,0.10031 0.40625,0.125 1.63971,0.2784 3.16235,0.6596 4.59375,1.28125 0.77986,-0.55787 1.43452,-1.3597 1.9375,-2.4375 l 1.1875,-2.96875 c -1.94059,0.25598 -3.87625,0.52604 -5.8125,0.8125 0.50236,-0.30706 1.0007,-0.62416 1.5,-0.9375 -0.61615,-0.004 -1.22774,-0.0224 -1.84375,-0.0312 z m -93.84375,0.28125 c -0.71818,0.002 -1.47073,0.12413 -2.4375,0.3125 0.007,0.24884 0.0312,0.50327 0.0312,0.75 l -0.0937,2.6875 -0.34375,2.65625 -0.46875,2.375 c -0.0987,0.83867 0.69763,1.73208 2.375,2.71875 l 2.59375,1.34375 0.65625,0.0625 c 1.03596,0 1.94745,-0.283 2.6875,-0.875 0.73995,-0.592 1.16445,-1.4015 1.3125,-2.4375 l -1.46875,-9.28125 c -2.49025,-0.16226 -3.79463,-0.31608 -4.84375,-0.3125 z m 89.3125,6.75 c 0.13543,0.001 0.27082,-0.001 0.40625,0 0.11614,0.001 -0.25085,0.1322 -0.34375,0.0625 -0.0179,-0.0134 -0.0445,-0.0446 -0.0625,-0.0625 z m 197.90625,22.71875 c 0.003,0.17674 -0.002,0.3544 0,0.53125 2.3776,-0.0629 1.81749,-0.27105 0,-0.53125 z m 0.0312,4.3125 c -0.0375,7.89651 -0.53437,15.68209 -1.4375,23.34375 0.80447,-0.54574 1.60124,-1.11279 2.40625,-1.65625 0.3417,-0.0713 0.68954,-0.11619 1.03125,-0.1875 -0.46346,0.97274 -0.96186,1.90915 -1.4375,2.78125 -0.75028,0.39584 -1.49401,0.80201 -2.25,1.1875 -2.11416,16.46182 -6.16711,32.31353 -11.9375,47.3125 0.003,1.22205 -0.005,2.43421 0,3.65625 0.0104,2.84093 0.0496,5.69107 -0.0312,8.53125 -0.11351,2.49619 -0.21628,5.06082 -1.34375,7.34375 -1.10115,1.76982 -2.6306,3.18773 -4.125,4.625 -1.44492,1.55168 -2.97298,3.02888 -4.46875,4.53125 -1.89622,1.92188 -3.93284,3.64882 -6.03125,5.34375 -0.63603,0.52998 -1.27342,1.08711 -1.90625,1.625 -21.96312,34.82451 -54.09249,62.58097 -92.25,79.09375 0.24268,0.22879 0.48305,0.45041 0.71875,0.6875 -0.83631,0.0381 -1.64883,0.0397 -2.4375,0.0312 -0.41585,0.17549 -0.83275,0.35843 -1.25,0.53125 2.83464,0.86777 6.66943,0.85785 10.5625,0.5 2.59344,1.3602 5.50511,1.71689 8.59375,1.625 C 419.32353,413.05114 466.73313,342.09916 468.125,260 c -1.50685,-1.64803 -4.66919,-1.8552 -6.59375,-2.09375 -1.13214,-0.15144 -2.24425,-0.40608 -3.34375,-0.65625 z m -257.5625,4.40625 c -0.3072,-0.011 -0.7912,0.23194 -1.4375,0.6875 -2.59793,1.83123 -4.73794,7.12899 -4.75,11.75 -0.023,8.83782 7.97888,18.65456 24.53125,30 5.36111,1.62654 9.87216,1.504 13.1875,-0.15625 -5.36287,-3.15784 -10.292,-6.20999 -10.21875,-6.53125 0.18388,-0.80646 2.63003,-1.34598 5.8125,-1.4375 0.47737,-0.0137 0.96507,-0.0389 1.46875,-0.0312 1.51105,0.0231 3.12611,0.16421 4.71875,0.375 3.05842,0.40478 7.92919,0.74432 10.8125,0.75 7.19297,0.0149 7.92081,0.46573 6.5625,4.34375 -0.51994,1.48444 -1.64013,3.89117 -2.65625,5.71875 0.0781,-0.027 0.13798,-0.0634 0.21875,-0.0937 0.0985,0.0397 0.19527,0.0752 0.3125,0.0937 -0.40672,0.58711 -0.81215,1.19312 -1.21875,1.78125 -0.14854,0.0188 -0.2916,0.0318 -0.4375,0.0625 -0.86929,1.30652 -1.68451,2.25 -1.96875,2.25 -0.18579,0 -0.85514,-0.30503 -1.75,-0.75 0.20523,0.84323 0.46077,1.6723 0.84375,2.46875 1.21758,2.07631 2.61744,3.97548 4.125,5.84375 1.57278,1.78457 2.78427,3.94097 4.71875,5.375 -4.98755,-0.15194 -9.97768,-0.19493 -14.96875,-0.1875 -0.22841,0.4516 -0.38269,0.77827 -0.625,1.25 -8.04203,15.65611 -7.30737,27.43122 2.5,40.09375 3.81418,4.92459 13.31836,13.65163 13.3125,12.21875 -0.001,-0.3769 -1.48718,-2.59611 -3.3125,-4.9375 -1.82532,-2.34139 -3.31083,-4.45225 -3.3125,-4.6875 -0.001,-0.23525 4.37959,-0.60011 9.75,-0.8125 0.89798,-0.0355 1.98336,-0.0938 3.03125,-0.15625 -0.44698,-0.23097 -0.85724,-0.47872 -1.28125,-0.75 -1.23582,-1.09233 -2.30151,-2.26958 -3.28125,-3.53125 1.622,-0.39134 3.58664,-0.83096 6.28125,-1.28125 4.52795,2.3e-4 9.0658,2.5e-4 13.59375,0 -0.24926,0.0126 -0.50077,0.0178 -0.75,0.0312 -2.92582,0.3254 -5.80493,0.91936 -8.375,2.4375 -1.75686,1.01253 -3.48352,2.09035 -5.28125,3.03125 5.05842,-0.32549 11.16267,-0.88869 15.1875,-1.4375 8.88702,-1.21181 9.78922,-1.21165 18.28125,-0.0625 4.91336,0.66488 9.94821,1.2223 11.1875,1.21875 1.9138,-0.006 2.39267,0.39673 3.125,2.71875 0.47422,1.50362 1.08389,4.2179 1.375,6.03125 0.95461,5.94636 2.8125,3.67861 2.8125,-3.4375 0,-9.52619 -5.21702,-18.33072 -16.9375,-28.625 -8.35786,-7.34084 -16.28326,-12.83308 -29.03125,-20.125 -7.77155,-4.44537 -9.73536,-5.90624 -9.28125,-6.84375 3.73044,-7.70153 4.08621,-9.16487 4.09375,-16.4375 0.008,-7.14594 -0.10164,-7.65529 -3.03125,-12.78125 -3.41823,-5.9809 -10.11436,-12.59832 -17.46875,-17.375 0.006,-0.004 -0.006,-0.0274 0,-0.0312 -0.5859,-0.38031 -1.18832,-0.73823 -1.78125,-1.09375 -6.27511,-3.76253 -8.60871,-4.49007 -5.59375,-1.75 1.04167,0.9467 1.70425,2.0065 1.4375,2.375 -0.26674,0.36851 -3.4169,0.86463 -6.96875,1.09375 -1.20159,0.0775 -2.72895,0.17428 -4.1875,0.28125 -0.007,0.28454 -0.0196,0.55946 -0.0312,0.84375 -0.0552,0.17759 -0.11633,0.37219 -0.125,0.40625 -0.002,0.0101 0.002,0.0211 0,0.0312 0.0139,-0.0264 0.0736,-0.049 0.125,-0.0937 -0.003,0.0617 -0.0271,0.12582 -0.0312,0.1875 -0.0466,-0.001 -0.0804,-0.018 -0.0937,-0.0312 -0.13614,0.66457 -0.16939,1.35467 -0.1875,2.03125 -0.0342,0.0804 -0.0668,0.14925 0,0.15625 -0.0172,0.19447 -0.0577,0.35123 -0.0937,0.5 0.8029,0.0752 1.64017,0.14822 2.5,0.21875 0.36397,-0.0668 0.72816,-0.15096 1.1875,-0.21875 0.49802,0.0862 0.96575,0.13722 1.34375,0.21875 0.053,0.063 0.0731,0.1547 0.125,0.21875 2.51235,0.17957 5.00696,0.31095 6.9375,0.375 7.5176,0.24943 7.70528,0.29679 9.9375,2.59375 4.13519,4.25512 3.61332,4.58004 -7.84375,5.0625 -5.59894,0.23578 -13.54274,0.57307 -17.65625,0.75 -13.45121,0.57858 -17.89363,-0.88274 -19.1875,-6.40625 l -0.5,-2.15625 6.3125,-0.9375 c 2.54109,-0.37111 4.47147,-0.55517 6.53125,-0.5625 0.88676,-0.003 1.82466,0.0272 2.8125,0.0937 -0.13055,-0.87197 -0.27353,-1.74256 -0.375,-2.625 -5.76017,0.42636 -13.15507,-0.13327 -15.09375,-1.15625 -0.99706,-0.52612 -1.02809,-1.20327 -0.1875,-4.3125 0.76729,-2.83808 0.8946,-4.10076 0.21875,-4.125 z m 23.21875,10.28125 c 0.004,-0.0203 -0.004,-0.0422 0,-0.0625 -0.0104,0.0196 -0.0108,0.0519 0,0.0625 z m -5.15625,14.53125 c 1.84397,-0.01 3.8045,0.0754 5.8125,0.21875 3.50284,0.25 10.99077,0.63176 16.625,0.875 9.99278,0.4314 10.25012,0.49587 11.03125,2.25 1.38142,3.10218 0.6186,3.44597 -8.9375,3.9375 -4.95326,0.25478 -11.07994,0.58519 -13.59375,0.75 -6.74159,0.44199 -14.43373,-0.99054 -17.875,-3.34375 -1.59366,-1.08978 -2.875,-2.42812 -2.875,-2.96875 0,-1.01445 4.28059,-1.68922 9.8125,-1.71875 z m 285.09375,2.34375 c -0.8097,0.18234 -2.04877,0.47425 -2.71875,0.625 -1.17489,0.25315 -2.35578,0.49818 -3.53125,0.75 -0.68452,4.98915 -1.5223,9.92311 -2.5,14.8125 1.37254,-0.6144 2.77873,-1.28708 4.25,-2.0625 0.009,-0.01 0.0222,-0.0215 0.0312,-0.0312 0.7784,-0.17869 1.56998,-0.36507 2.34375,-0.5625 0.11517,-0.6257 0.23319,-1.2477 0.34375,-1.875 -0.2926,-0.0104 -0.66182,-0.0195 -0.96875,-0.0312 0.0362,-0.30958 -0.002,-0.62722 -0.1875,-0.96875 0.44643,-0.0263 0.89684,-0.0478 1.34375,-0.0625 0.6027,-3.50744 1.13713,-7.0386 1.59375,-10.59375 z m -294.75,6.5625 c 0.20795,-0.002 0.38802,0.002 0.59375,0 -0.0554,0.0866 -0.12614,0.16113 -0.21875,0.1875 -0.13618,0.0388 -0.51659,-0.1865 -0.375,-0.1875 z M 494.375,309.40625 c -0.0913,0.006 -0.19006,0.0235 -0.28125,0.0312 -1.2875,5.87219 -2.80226,11.66718 -4.5,17.375 1.9826,-0.26366 4.08279,-0.53436 6.46875,-0.78125 1.53943,-5.37602 2.90742,-10.82797 4.09375,-16.34375 -1.6054,-0.11968 -3.2035,-0.21168 -4.8125,-0.28125 -0.32676,-0.0141 -0.64446,-0.0199 -0.96875,0 z m -239.875,0.8125 c 0.22928,-0.0105 0.42636,9.2e-4 0.625,0 -3e-5,0.0312 7e-5,0.0625 0,0.0937 -0.0678,0.002 -0.17177,-0.002 -0.25,0 -0.13792,-0.0365 -0.26459,-0.0657 -0.375,-0.0937 z m 2.5,9.84375 c 0.0172,0.0327 0.0449,0.0611 0.0625,0.0937 0.41128,0.82482 0.98016,1.55534 1.5,2.3125 0.42927,0.58004 0.88008,1.16113 1.40625,1.65625 0.61889,0.55351 1.23319,1.10697 1.90625,1.59375 0.5475,0.44349 1.15596,0.75622 1.78125,1.0625 -0.003,0.0417 0.003,0.0833 0,0.125 -0.0388,0.72194 -0.0311,1.46476 -0.0312,2.1875 0.005,0.13317 0.009,0.24385 0,0.375 -0.11954,0.0109 -0.22291,0.0204 -0.34375,0.0312 3.27889,1.90316 6.10376,3.7359 5.96875,4.09375 -0.2479,0.65707 -3.60678,0.75639 -7.5,0.5625 -0.055,0.83911 -0.0538,1.69345 -0.0312,2.53125 2.4514,-0.22454 4.57925,-0.35408 6.4375,-0.34375 6.01725,0.0334 9.53556,1.40758 14.78125,4.8125 3.12656,2.02941 5.6875,4.08599 5.6875,4.5625 0,0.47651 -1.87972,1.20243 -4.1875,1.625 -5.3052,0.97141 -14.25746,0.83941 -22.8125,-0.34375 -3.65645,-0.50568 -9.35949,-0.94335 -12.6875,-0.96875 -6.91242,-0.0527 -7.44857,-0.45093 -5.75,-4.65625 0.85646,-2.12044 1.65125,-2.86252 3.15625,-3 1.0991,-0.1004 6.36193,-0.70314 11.6875,-1.3125 0.5299,-0.0606 0.99902,-0.10278 1.5,-0.15625 -0.02,-0.25281 -0.0517,-0.49933 -0.0937,-0.75 -0.14948,-0.75476 -0.43294,-1.47606 -0.71875,-2.1875 -2.83413,-0.2445 -5.62801,-0.62118 -7.5,-1.0625 0.0126,0.0307 0.0186,0.063 0.0312,0.0937 -0.0258,0.007 -0.0675,-0.007 -0.0937,0 0,-0.0313 0,-0.0625 0,-0.0937 -1.25343,-0.29924 -2.08887,-0.63531 -2.21875,-0.96875 -0.5056,-1.29792 3.31647,-7.21875 4.65625,-7.21875 0.37109,0 1.41086,0.42648 2.6875,1.03125 -0.0479,-0.47988 -0.10155,-0.97589 -0.25,-1.4375 -0.12625,-0.45385 -0.1996,-0.90812 -0.28125,-1.375 0.51855,-0.63714 0.86018,-1.37256 1.09375,-2.15625 0.0362,-0.24252 0.10406,-0.48148 0.15625,-0.71875 z m 231.59375,10.0625 c -5.56079,17.77341 -13.06801,34.67699 -22.28125,50.46875 2.05899,-0.46252 4.13109,-0.90071 6.1875,-1.375 -1.887,1.05163 -3.79062,2.0511 -5.71875,3.03125 -0.002,-0.28447 -0.0174,-0.57333 -0.0625,-0.90625 -0.0358,-0.26379 -0.21125,-0.5026 -0.4375,-0.6875 -29.79813,51.04169 -77.37497,90.42292 -134.25,109.65625 -0.009,0.003 -0.0219,-0.003 -0.0312,0 -1.62098,1.15769 -2.98191,2.68628 -4.53125,3.9375 -1.50976,2.19761 -3.6633,3.58586 -5.8125,5.0625 -1.21458,0.62629 -2.48458,1.07517 -3.78125,1.5 9.31601,-2.47191 18.41765,-5.46026 27.28125,-8.9375 0.0613,-0.1368 0.12604,-0.26955 0.1875,-0.40625 0.41033,-0.043 0.78442,-0.081 1.21875,-0.125 70.459,-28.129 125.29181,-87.04538 147.9375,-160.09375 -2.45075,-0.35514 -4.36423,-0.75688 -5.90625,-1.125 z m -426.625,1.90625 c -2.95478,0.16567 -6.424353,0.32433 -10.53125,0.46875 9.921745,26.17941 24.808977,49.92833 43.5,70.09375 0.0048,0.005 0.02647,-0.005 0.03125,0 1.335374,-0.3037 2.858951,-0.61514 4.5,-0.90625 -0.140693,0.83518 -0.289785,1.66569 -0.4375,2.5 -0.877675,0.0917 -1.339169,0.41071 -1.5625,1.09375 12.89512,13.44611 27.50785,25.21863 43.5,34.96875 0.25206,-0.40327 0.53243,-0.79687 0.78125,-1.1875 1.39184,-2.48921 2.70943,-5.00948 4.03125,-7.53125 -6.58378,-4.02802 -12.93592,-8.401 -19,-13.125 0.0104,0.7488 0.17471,1.84043 0.4375,3.4375 0.006,0.16532 -0.004,0.33454 0,0.5 -0.19737,0.006 -0.0614,0.27638 0.0312,0.53125 0.007,0.70325 0.002,1.39009 -0.0312,2.09375 -0.17702,-0.11698 -0.353,-0.22906 -0.53125,-0.34375 -1.58541,-1.91671 -1.42723,-4.48516 -1.34375,-6.9375 0.13136,-0.0417 0.22874,-0.0933 0.3125,-0.1875 -9.48527,-7.49666 -18.28663,-15.81656 -26.3125,-24.84375 -1.46188,2.00299 -2.969181,3.98609 -4.5,5.9375 0.368374,-1.85165 0.769656,-3.69027 1.1875,-5.53125 0.882826,-0.37711 1.770142,-0.756 2.65625,-1.125 -12.405054,-14.08573 -22.901013,-29.8816 -31.09375,-47 -0.186926,0.0417 -0.376219,0.0805 -0.5625,0.125 -0.249243,-0.73632 -0.487106,-1.47634 -0.71875,-2.21875 -0.344769,-0.91322 -0.647132,-1.84679 -0.9375,-2.78125 -1.186232,-2.65379 -2.330091,-5.31947 -3.40625,-8.03125 z m 4.5625,12.09375 c 0.03864,0.004 0.05467,0.0138 0.09375,0.0625 0.202688,0.25263 0.271082,0.57585 0.28125,0.90625 -0.376157,0.0912 -0.751713,0.17751 -1.125,0.28125 -0.02046,-0.002 -0.04205,0.002 -0.0625,0 0.26679,-0.34622 0.542024,-1.27956 0.8125,-1.25 z m 207.65625,7 c 4.26468,-0.068 9.7248,0.26479 16.9375,0.96875 6.44107,0.62864 7.17978,0.90594 9.4375,3.6875 2.88607,3.55572 2.78931,4.40625 -0.5,4.40625 -1.48561,0 -5.33203,0.48393 -8.53125,1.0625 -6.81488,1.23244 -7.81055,1.21939 -16.59375,-0.0312 -3.65645,-0.52066 -12.39399,-1.18813 -19.40625,-1.46875 -13.4357,-0.53768 -13.33897,-0.49453 -13.65625,-4.21875 L 241.6875,353.4375 252.0625,353 c 5.71321,-0.24514 12.75291,-0.85261 15.625,-1.34375 1.82904,-0.31277 3.94119,-0.49047 6.5,-0.53125 z m -240.34375,19.5 c -2.031149,0.27133 -4.077509,0.68075 -6.125,1.1875 3.197466,6.20773 6.627704,12.26041 10.3125,18.15625 1.604217,-0.0415 1.928742,-0.0349 0.03125,0.0312 4.67373,7.47536 9.726418,14.69731 15.125,21.625 1.55079,0.15169 3.101757,0.29379 4.65625,0.40625 0.631857,0.0457 1.066438,-0.69455 1.53125,-1.125 0.162186,-0.15019 0.309106,-0.31579 0.46875,-0.46875 -3.995676,-4.99619 -7.801314,-10.16668 -11.40625,-15.46875 -0.988618,-0.031 -1.980108,-0.0652 -2.96875,-0.0937 0.928261,-0.0234 2.033024,-0.037 2.875,-0.0625 -5.273246,-7.76802 -10.122972,-15.82148 -14.5,-24.1875 z m 27.21875,41.3125 c -0.145261,0.53941 -0.291461,1.08711 -0.4375,1.625 0.01586,0.21202 -0.745122,2.44863 -1.625,5.25 4.062092,4.83905 8.311173,9.51069 12.71875,14.03125 4.397719,0.46608 7.233718,0.83758 9.21875,0.8125 -7.049192,-6.83296 -13.67796,-14.09209 -19.875,-21.71875 z m 20.875,22.71875 c -0.03246,0.0617 -0.06131,0.12578 -0.09375,0.1875 -0.874929,1.81072 -1.805866,3.56973 -2.625,5.40625 0.676381,0.63862 1.347904,1.27503 2.03125,1.90625 0.193993,-0.11417 0.419064,-0.22549 0.5625,-0.25 0.244246,-0.0417 0.525897,0.0934 0.6875,0.28125 0.07399,0.086 0.128626,0.1868 0.1875,0.28125 -0.363119,-0.0101 -0.730656,-0.0201 -1.09375,-0.0312 15.983825,14.71322 33.84697,27.41595 53.21875,37.65625 1.85931,-1.2237 3.65873,-2.5347 5.4375,-3.875 -5.45774,-2.7987 -10.78748,-5.8163 -16,-9 -1.21081,0.9684 -2.41491,1.93695 -3.625,2.90625 0.0142,-0.1058 0.0174,-0.24355 0.0312,-0.34375 0.20307,-1.4657 0.44349,-2.9233 0.71875,-4.375 -14.17384,-8.9266 -27.40136,-19.2153 -39.4375,-30.75 z M 151.6875,435 c -1.73683,2.84345 -3.57122,5.62002 -5.5,8.34375 2.02223,1.15607 4.0621,2.28422 6.125,3.375 0.0103,0.001 0.0209,-0.001 0.0312,0 1.94954,0.23753 4.03434,0.19328 6.125,0.0312 0.49471,0.59064 1.10927,1.08415 1.9375,1.34375 2.51077,-0.0797 2.95087,2.24646 3.65625,4.25 0.0116,0.0419 0.0197,0.0831 0.0312,0.125 8.63082,3.90473 17.56049,7.26967 26.75,10.03125 0.24665,-3.24098 0.43137,-6.46755 0.4375,-9.71875 -0.0237,-0.21625 -0.0675,-0.38824 -0.0937,-0.59375 -13.85612,-4.35291 -27.08561,-10.15007 -39.5,-17.1875 z m 3.1875,5.5 c 0.17731,-0.001 0.35393,0.001 0.53125,0 0.0605,0.0214 0.10518,0.0636 0.15625,0.0937 -0.38329,0.003 -0.67233,-0.003 -1.0625,0 0.0687,-0.0189 0.21536,-0.0682 0.375,-0.0937 z m 163.46875,10.4375 c -12.1439,4.07969 -24.80107,7.05825 -37.84375,8.8125 -0.49476,0.2444 -0.9982,0.43644 -1.53125,0.625 -0.5081,0.17974 -1.03195,0.31145 -1.5625,0.40625 -1.63226,0.0187 -3.07792,0.0471 -5.0625,0.0625 -0.61872,0.005 -1.1968,0.15961 -1.75,0.40625 -0.14303,-0.12895 -0.29007,-0.25138 -0.4375,-0.375 -5.70964,0.47635 -11.47988,0.71875 -17.3125,0.71875 -3.5454,0 -7.06141,-0.10405 -10.5625,-0.28125 -0.0104,-6e-4 -0.0209,5e-4 -0.0312,0 -0.0424,0.019 -0.0826,0.0435 -0.125,0.0625 0.003,-0.02 -0.003,-0.0435 0,-0.0625 -11.52901,-0.5924 -22.80233,-2.14765 -33.75,-4.5625 -0.01,-0.002 -0.0214,0.002 -0.0312,0 -3.7315,0.48281 -7.45524,1.00491 -11.1875,1.46875 -0.29123,0.12418 -0.5838,0.25118 -0.875,0.375 -0.30222,10e-5 -0.60403,10e-5 -0.90625,0 -0.0766,0.21924 -0.14539,0.43522 -0.21875,0.65625 -0.0626,-0.009 -0.12491,-0.0226 -0.1875,-0.0312 -0.23807,-0.0334 -0.28899,-0.31619 -0.25,-0.6875 -0.37249,0.0426 -0.75236,0.0846 -1.125,0.125 -0.72382,1.34077 -1.45989,2.6807 -2.21875,4 5.13885,1.52971 10.36347,2.85153 15.65625,4 0.81995,-0.1097 1.554,-0.22368 2.3125,-0.34375 0.10911,0.32485 0.22106,0.61701 0.34375,0.90625 10.01512,2.04015 20.28635,3.40411 30.75,4 0.0687,-0.3947 0.11867,-0.7928 0.1875,-1.1875 3.67929,0.4204 7.37534,0.75295 11.0625,1.09375 0.0755,0.065 0.17012,0.15085 0.25,0.21875 -0.056,0.01 -0.10003,0.0253 -0.15625,0.0312 -0.19341,0.02 -0.36391,0.081 -0.5,0.1875 0.31259,0 0.62498,0.0222 0.9375,0.0312 -0.023,-0.0169 -0.0401,-0.044 -0.0625,-0.0625 0.52018,-0.0119 1.04227,-0.0206 1.5625,-0.0312 -0.056,0.0353 -0.10167,0.0627 -0.15625,0.0937 1.54668,-0.006 3.08641,-0.0236 4.625,-0.0625 0.0348,-0.0382 0.0591,-0.0867 0.0937,-0.125 0.43714,-0.007 0.87535,-0.0243 1.3125,-0.0312 0.0163,0.0319 0.0463,0.0627 0.0625,0.0937 0.14525,-0.005 0.29231,0.005 0.4375,0 -0.10149,-0.3139 -0.21057,-0.6238 -0.3125,-0.9375 -1.14053,-3.6084 -0.91875,-2.86065 -1.03125,-3.21875 1.09261,-0.3309 2.18633,-0.64595 3.28125,-0.96875 0.0384,1.1512 0.084,2.31995 0.1875,3.46875 0.0621,0.5226 0.10678,1.0439 0.1875,1.5625 10.49237,-0.45975 20.79029,-1.68351 30.84375,-3.59375 0.4646,-0.52132 0.96105,-1.00778 1.5,-1.46875 2.31838,0.1081 4.22691,0.0736 6.03125,-0.28125 0.0702,0.0492 0.14896,0.0832 0.21875,0.125 10.18323,-2.32787 20.08039,-5.37745 29.65625,-9.09375 0.0995,-0.0838 0.11672,-0.10414 0.25,-0.21875 0.0794,0.0196 0.11049,0.0122 0.1875,0.0312 1.07209,-0.41882 2.15513,-0.81455 3.21875,-1.25 -2.18293,-0.1269 -4.45365,-0.25682 -6.78125,-0.375 0.0391,-0.66003 -0.0496,-1.31203 -0.375,-1.9375 -0.64826,-1.24603 -1.83862,-2.2826 -3.34375,-2.3125 -1.80769,-0.0359 -3.62961,-0.0236 -5.4375,-0.0312 -0.0113,-0.01 -0.0199,-0.0217 -0.0312,-0.0312 z m -123.625,7.59375 c 0.0421,-0.005 0.0827,-0.0258 0.125,-0.0312 -0.0307,-0.0213 -0.064,-0.0403 -0.0937,-0.0625 -0.004,0.0311 -0.0281,0.0636 -0.0312,0.0937 z m 132,-2.5 c 1.00702,-0.0921 0.9249,0.36602 0.0937,1.71875 -0.92876,-0.0308 -2.02796,-0.0335 -3.125,-0.0625 -0.0613,-0.31507 -0.0907,-0.66596 -0.125,-1 1.40899,-0.31934 2.54463,-0.60034 3.15625,-0.65625 z m -131.21875,0.75 c -0.14006,-0.0618 -0.34924,0.35712 -0.53125,0.84375 0.20782,-0.0148 0.46294,-0.0173 0.65625,-0.0312 0.0261,-0.23484 0.0358,-0.459 -0.0312,-0.6875 -0.0197,-0.0672 -0.0614,-0.1107 -0.0937,-0.125 z m 70.875,7.1875 c 0.15348,-0.0215 0.39894,-0.0144 0.65625,0 -0.039,0.045 -0.085,0.0781 -0.125,0.125 -0.36422,0.006 -0.72953,0.026 -1.09375,0.0312 0.18183,-0.0656 0.37125,-0.12942 0.5625,-0.15625 z m 31.71875,1 c 0.30316,0.002 0.64056,0.002 0.96875,0.0312 0.15944,0.0143 0.46172,0.0702 0.71875,0.0937 0.01,0.0105 0.0215,0.0209 0.0312,0.0312 -1.16801,0.008 -2.03517,-0.006 -3.15625,0 0.46552,-0.13955 0.93823,-0.15936 1.4375,-0.15625 z m -77.875,0.625 c 0.0716,-0.01 0.18894,-0.004 0.34375,0.0312 -0.13544,3.2e-4 -0.27081,-3.6e-4 -0.40625,0 -0.028,8e-5 -4.3e-4,-0.0227 0.0625,-0.0312 z m -79.875,10.65625 c 0.5809,6.3945 8.17479,8.42805 15.71875,7.34375 -3.75647,-1.60083 -7.46425,-3.28859 -11.125,-5.0625 -0.0397,0.0648 -0.20963,0.19788 -0.28125,0.15625 -0.0697,-0.0405 -0.12159,-0.11105 -0.15625,-0.1875 0.13011,0.003 0.24395,-0.002 0.375,0 -1.51774,-0.73601 -3.03218,-1.48203 -4.53125,-2.25 z m 22.21875,10.03125 c -0.004,0.041 0.004,0.084 0,0.125 -0.0219,0.1806 -0.15216,0.94885 -0.28125,1.96875 0.25419,-10e-5 0.45121,0.0345 0.5,0.0625 l -0.5,0 c -0.0808,0.64283 -0.17007,1.51187 -0.25,2.3125 0.41691,0.003 0.83309,-0.003 1.25,0 -0.22165,0.27494 -0.48548,0.43938 -1.25,0.125 -0.0525,0.53332 -0.11109,0.97213 -0.15625,1.53125 1.22184,0.47127 2.45676,0.92207 3.6875,1.375 0.17658,-0.10974 0.3786,-0.22994 0.5,-0.28125 0.19927,-0.0844 0.43992,-0.002 0.65625,0 0.13698,0.20242 0.24955,0.40921 0.34375,0.625 -0.20838,-0.006 -0.41662,0.006 -0.625,0 4.20931,1.5314 8.47222,2.93808 12.78125,4.25 0.64507,-0.005 1.29244,0.002 1.9375,0 -0.14961,0.16921 -0.29385,0.32932 -0.46875,0.4375 9.23967,2.75181 18.69165,5.00136 28.34375,6.6875 0.0221,-0.024 0.0402,-0.0405 0.0625,-0.0625 -0.002,0.02 0.003,0.0435 0,0.0625 14.21167,2.479 28.8305,3.78125 43.75,3.78125 9.77376,0 19.42059,-0.57665 28.90625,-1.65625 0.35007,-0.80402 0.70978,-1.6034 1.0625,-2.40625 -0.0219,-8e-5 -0.0408,10e-5 -0.0625,0 0.0513,-0.0622 0.10519,-0.12513 0.15625,-0.1875 0.55029,-1.25098 1.08765,-2.50798 1.65625,-3.75 -10.38386,1.3301 -20.97223,2 -31.71875,2 -1.65777,0 -3.31872,-0.03 -4.96875,-0.0625 -0.37486,0.08 -0.75035,0.16905 -1.125,0.25 -0.0219,-0.0888 -0.0658,-0.16235 -0.0937,-0.25 -29.62258,-0.72583 -57.9461,-6.67119 -84.09375,-16.9375 z M 183.125,498.5 c 0.0669,-0.0186 0.1302,-0.0273 0.15625,0 0.11231,0.1176 0.20603,0.25709 0.28125,0.40625 -0.35541,-0.004 -0.7071,0.005 -1.0625,0 0.21579,-0.20216 0.45774,-0.35967 0.625,-0.40625 z m 118.0625,0.0312 c -4.84001,0.96016 -9.71861,1.7958 -14.65625,2.46875 -0.21809,0.8244 -0.38478,1.6537 -0.4375,2.5 -0.0172,0.27613 0.0167,0.53248 0.0312,0.78125 3.93549,-0.0676 7.8646,-0.13834 10.65625,-0.15625 0.0746,0.0614 0.14242,0.12781 0.21875,0.1875 0.0414,0.0273 0.084,0.0345 0.125,0.0625 -0.18354,0.0488 -0.32101,0.1865 -0.5,0.25 -4.1996,0.30216 -7.63758,0.46015 -10.40625,0.53125 0.17596,0.72439 0.51569,1.31186 1,1.78125 7.91832,-1.07646 15.70849,-2.52126 23.375,-4.3125 0.019,-0.67762 -0.15258,-1.37989 -0.53125,-1.9375 0.012,-0.145 0.0288,-0.27901 0.0312,-0.4375 0.007,-0.46641 0.18428,-1.3454 -0.28125,-1.375 -2.86685,-0.18231 -5.7531,-0.2876 -8.625,-0.34375 z m -99.46875,0.4375 c 0.19251,-0.006 0.36988,0.0376 0.53125,0.125 -0.37457,-0.004 -0.75042,0.004 -1.125,0 0.20217,-0.0692 0.41007,-0.11968 0.59375,-0.125 z m 73.0625,5.5 c 0.35288,-0.004 0.80596,0.005 1.1875,0 -0.14253,0.0658 -0.29016,0.12901 -0.4375,0.1875 0.0954,0.0249 0.0793,0.0439 0.125,0.0625 -0.3475,-0.0755 -0.63751,-0.17153 -0.875,-0.25 z"
       transform="translate(0,540.36218)"
       id="path6800"
       style="font-size:medium;font-style:normal;font-variant:normal;font-weight:normal;font-stretch:normal;text-indent:0;text-align:start;text-decoration:none;line-height:normal;letter-spacing:normal;word-spacing:normal;text-transform:none;direction:ltr;block-progression:tb;writing-mode:lr-tb;text-anchor:start;baseline-shift:baseline;color:#000000;fill:#960000;fill-opacity:1;stroke:none;stroke-width:10;marker:none;visibility:visible;display:inline;overflow:visible;enable-background:accumulate;font-family:Sans;-inkscape-font-specification:Sans" />
    <g
       transform="translate(-397.18429,-25.591734)"
       clip-path="url(#clipPath6489)"
       id="g6457">
      <g
         transform="matrix(0.83747032,0,0,0.70951278,564.97734,822.85628)"
         clip-path="url(#clipPath4090-6)"
         id="g4825"
         style="fill:#960000;fill-opacity:1">
        <g
           transform="translate(-447.93417,-92.88267)"
           id="g4827"
           style="fill:#960000;fill-opacity:1" />
      </g>
    </g>
  </g>
</svg>
